<svg width="20" height="21" viewBox="0 0 20 21" fill="none" xmlns="http://www.w3.org/2000/svg">
<path d="M4.17071 16.5C4.58254 15.3348 5.69378 14.5 7 14.5C8.3062 14.5 9.4175 15.3348 9.8293 16.5H20V18.5H9.8293C9.4175 19.6652 8.3062 20.5 7 20.5C5.69378 20.5 4.58254 19.6652 4.17071 18.5H0V16.5H4.17071ZM10.1707 9.5C10.5825 8.33481 11.6938 7.5 13 7.5C14.3062 7.5 15.4175 8.33481 15.8293 9.5H20V11.5H15.8293C15.4175 12.6652 14.3062 13.5 13 13.5C11.6938 13.5 10.5825 12.6652 10.1707 11.5H0V9.5H10.1707ZM4.17071 2.5C4.58254 1.33481 5.69378 0.5 7 0.5C8.3062 0.5 9.4175 1.33481 9.8293 2.5H20V4.5H9.8293C9.4175 5.66519 8.3062 6.5 7 6.5C5.69378 6.5 4.58254 5.66519 4.17071 4.5H0V2.5H4.17071ZM7 4.5C7.55228 4.5 8 4.05228 8 3.5C8 2.94772 7.55228 2.5 7 2.5C6.44772 2.5 6 2.94772 6 3.5C6 4.05228 6.44772 4.5 7 4.5ZM13 11.5C13.5523 11.5 14 11.0523 14 10.5C14 9.9477 13.5523 9.5 13 9.5C12.4477 9.5 12 9.9477 12 10.5C12 11.0523 12.4477 11.5 13 11.5ZM7 18.5C7.55228 18.5 8 18.0523 8 17.5C8 16.9477 7.55228 16.5 7 16.5C6.44772 16.5 6 16.9477 6 17.5C6 18.0523 6.44772 18.5 7 18.5Z" fill="#011813"/>
</svg>
