<svg width="13" height="13" viewBox="0 0 13 13" fill="none" xmlns="http://www.w3.org/2000/svg">
<path d="M3.25 2.6V0.65C3.25 0.291018 3.54102 0 3.9 0H9.1C9.45899 0 9.75 0.291018 9.75 0.65V2.6H12.35C12.709 2.6 13 2.89102 13 3.25V12.35C13 12.709 12.709 13 12.35 13H0.65C0.291018 13 0 12.709 0 12.35V3.25C0 2.89102 0.291018 2.6 0.65 2.6H3.25ZM4.55 7.8H1.3V11.7H11.7V7.8H8.45V9.75H4.55V7.8ZM11.7 3.9H1.3V6.5H4.55V5.2H8.45V6.5H11.7V3.9ZM5.85 6.5V8.45H7.15V6.5H5.85ZM4.55 1.3V2.6H8.45V1.3H4.55Z" fill="#4E5255"/>
</svg>
