<svg width="13" height="13" viewBox="0 0 13 13" fill="none" xmlns="http://www.w3.org/2000/svg">
<path d="M4.55 1.3C5.26799 1.3 5.85 1.88203 5.85 2.6V7.03761C5.26877 6.58924 4.52791 6.32482 3.68186 6.18384L3.46814 7.46616C4.36554 7.61572 4.93833 7.89932 5.29113 8.28152C5.6355 8.65455 5.85 9.20855 5.85 10.075C5.85 10.9725 5.12246 11.7 4.225 11.7C3.32754 11.7 2.6 10.9725 2.6 10.075V9.84704C2.87955 9.94019 3.16962 10.0164 3.46814 10.0662L3.68186 8.78384C3.19897 8.70337 2.71388 8.52436 2.22891 8.29393C1.67802 8.03224 1.3 7.47435 1.3 6.825C1.3 6.28244 1.43495 5.85552 1.66318 5.5417C1.88787 5.23276 2.23723 4.98569 2.75765 4.85559L3.25 4.73251V2.6C3.25 1.88203 3.83203 1.3 4.55 1.3ZM6.5 0.880217C6.02361 0.340444 5.32655 0 4.55 0C3.11406 0 1.95 1.16406 1.95 2.6V3.75324C1.39682 3.97569 0.94343 4.3211 0.611819 4.77706C0.190054 5.35697 0 6.06755 0 6.825C0 7.84238 0.517172 8.73386 1.3 9.25743V10.075C1.3 11.6904 2.60957 13 4.225 13C5.14386 13 5.96375 12.5763 6.5 11.9137C7.03625 12.5763 7.85616 13 8.775 13C10.3904 13 11.7 11.6904 11.7 10.075V9.25743C12.4829 8.73386 13 7.84238 13 6.825C13 6.06755 12.8099 5.35697 12.3882 4.77706C12.0566 4.3211 11.6032 3.97569 11.05 3.75324V2.6C11.05 1.16406 9.88591 0 8.45 0C7.67344 0 6.97638 0.340444 6.5 0.880217ZM10.4 9.84704V10.075C10.4 10.9725 9.67245 11.7 8.775 11.7C7.87754 11.7 7.15 10.9725 7.15 10.075C7.15 9.20855 7.3645 8.65455 7.70887 8.28152C8.06169 7.89932 8.63447 7.61572 9.53186 7.46616L9.31814 6.18384C8.4721 6.32482 7.73123 6.58924 7.15 7.03761V2.6C7.15 1.88203 7.73201 1.3 8.45 1.3C9.16799 1.3 9.75 1.88203 9.75 2.6V4.73251L10.2424 4.85559C10.7628 4.98569 11.1121 5.23276 11.3368 5.5417C11.5651 5.85552 11.7 6.28244 11.7 6.825C11.7 7.47435 11.322 8.03224 10.7711 8.29393C10.2861 8.52436 9.80102 8.70337 9.31814 8.78384L9.53186 10.0662C9.8304 10.0164 10.1204 9.94019 10.4 9.84704Z" fill="#4E5255"/>
</svg>
