<svg width="15" height="15" viewBox="0 0 15 15" fill="none" xmlns="http://www.w3.org/2000/svg">
<path d="M2.49996 4.99998L2.05809 5.44186L1.61621 4.99998L2.05809 4.55811L2.49996 4.99998ZM5.62496 12.5C5.4592 12.5 5.30023 12.4341 5.18302 12.3169C5.06581 12.1997 4.99996 12.0407 4.99996 11.875C4.99996 11.7092 5.06581 11.5502 5.18302 11.433C5.30023 11.3158 5.4592 11.25 5.62496 11.25V12.5ZM5.18309 8.56686L2.05809 5.44186L2.94184 4.55811L6.06684 7.68311L5.18309 8.56686ZM2.05809 4.55811L5.18309 1.43311L6.06684 2.31686L2.94184 5.44186L2.05809 4.55811ZM2.49996 4.37498H9.06246V5.62498H2.49996V4.37498ZM9.06246 12.5H5.62496V11.25H9.06246V12.5ZM13.125 8.43748C13.125 9.51492 12.6969 10.5482 11.9351 11.3101C11.1732 12.072 10.1399 12.5 9.06246 12.5V11.25C9.4318 11.25 9.79753 11.1772 10.1388 11.0359C10.48 10.8945 10.79 10.6874 11.0512 10.4262C11.3124 10.1651 11.5195 9.85501 11.6609 9.51378C11.8022 9.17255 11.875 8.80682 11.875 8.43748H13.125ZM9.06246 4.37498C10.1399 4.37498 11.1732 4.80299 11.9351 5.56486C12.6969 6.32673 13.125 7.36004 13.125 8.43748H11.875C11.875 8.06814 11.8022 7.70241 11.6609 7.36118C11.5195 7.01996 11.3124 6.70991 11.0512 6.44874C10.79 6.18758 10.48 5.98041 10.1388 5.83907C9.79753 5.69773 9.4318 5.62498 9.06246 5.62498V4.37498Z" fill="#011813"/>
</svg>
