<svg width="13" height="13" viewBox="0 0 13 13" fill="none" xmlns="http://www.w3.org/2000/svg">
<path d="M11.083 8.36149C12.0444 6.16369 11.1815 3.56745 8.98582 2.34377C7.39918 1.45949 5.51747 1.5154 4.03301 2.33243L3.4163 1.29052C5.27187 0.269251 7.62396 0.199369 9.60728 1.30471C12.3981 2.86006 13.4663 6.18931 12.1661 8.96516L13 9.42991L10.4116 10.7581L10.309 7.93016L11.083 8.36149ZM1.917 4.6385C0.955621 6.8363 1.81853 9.43255 4.01417 10.6562C5.60081 11.5405 7.48246 11.4846 8.96687 10.6676L9.5836 11.7095C7.72806 12.7307 5.37603 12.8006 3.39271 11.6953C0.601974 10.1399 -0.466313 6.81068 0.833871 4.03484L0 3.5701L2.58841 2.24187L2.69099 5.06985L1.917 4.6385ZM4.3249 7.6998H7.74291C7.91455 7.6998 8.05364 7.56548 8.05364 7.39985C8.05364 7.23421 7.91455 7.0999 7.74291 7.0999H5.25708C4.39903 7.0999 3.70344 6.42843 3.70344 5.60015C3.70344 4.77186 4.39903 4.1004 5.25708 4.1004H5.87854V3.5005H7.12145V4.1004H8.67509V5.3002H5.25708C5.08548 5.3002 4.94636 5.43451 4.94636 5.60015C4.94636 5.76578 5.08548 5.9001 5.25708 5.9001H7.74291C8.60095 5.9001 9.29655 6.57156 9.29655 7.39985C9.29655 8.22813 8.60095 8.8996 7.74291 8.8996H7.12145V9.4995H5.87854V8.8996H4.3249V7.6998Z" fill="#4E5255"/>
</svg>
