<svg width="15" height="15" viewBox="0 0 15 15" fill="none" xmlns="http://www.w3.org/2000/svg">
<path d="M12.5 13.75H11.25V12.5C11.25 11.4644 10.4106 10.625 9.375 10.625H5.625C4.58947 10.625 3.75 11.4644 3.75 12.5V13.75H2.5V12.5C2.5 10.7741 3.89911 9.375 5.625 9.375H9.375C11.1009 9.375 12.5 10.7741 12.5 12.5V13.75ZM7.5 8.125C5.42893 8.125 3.75 6.44606 3.75 4.375C3.75 2.30393 5.42893 0.625 7.5 0.625C9.57106 0.625 11.25 2.30393 11.25 4.375C11.25 6.44606 9.57106 8.125 7.5 8.125ZM7.5 6.875C8.88069 6.875 10 5.75571 10 4.375C10 2.99429 8.88069 1.875 7.5 1.875C6.11929 1.875 5 2.99429 5 4.375C5 5.75571 6.11929 6.875 7.5 6.875Z" fill="#011813"/>
</svg>
