<svg width="16" height="17" viewBox="0 0 16 17" fill="none" xmlns="http://www.w3.org/2000/svg">
<path d="M2.5 3.03125H13.5C13.7569 3.03125 14.0029 3.13375 14.1846 3.31543C14.3662 3.49711 14.4688 3.74307 14.4688 4V5.92188L14.4785 5.93066C14.7915 6.23041 15.0408 6.59068 15.2109 6.98926C15.3811 7.38779 15.4688 7.81668 15.4688 8.25C15.4688 8.68332 15.3811 9.11221 15.2109 9.51074C15.0408 9.90932 14.7915 10.2696 14.4785 10.5693L14.4688 10.5781V14.5C14.4695 14.5826 14.4481 14.6645 14.4072 14.7363C14.3664 14.808 14.3075 14.8676 14.2363 14.9092C14.1649 14.9508 14.0836 14.9734 14.001 14.9736C13.9391 14.9738 13.8781 14.961 13.8213 14.9375L13.7656 14.9102L12.2656 14.0518L12.25 14.043L12.2344 14.0518L10.7344 14.9102C10.6628 14.9515 10.5816 14.9738 10.499 14.9736C10.4164 14.9734 10.3351 14.9508 10.2637 14.9092C10.1925 14.8676 10.1336 14.808 10.0928 14.7363C10.0519 14.6645 10.0305 14.5826 10.0312 14.5V12.9688H2.5C2.24307 12.9688 1.99711 12.8662 1.81543 12.6846C1.63375 12.5029 1.53125 12.2569 1.53125 12V4C1.53125 3.74307 1.63375 3.49711 1.81543 3.31543C1.99711 3.13375 2.24307 3.03125 2.5 3.03125ZM13.4883 11.2207C13.0961 11.3845 12.675 11.4697 12.25 11.4697C11.825 11.4697 11.4039 11.3845 11.0117 11.2207L10.9688 11.2031V13.6924L11.0156 13.666L12.0156 13.0938C12.0864 13.0533 12.1665 13.0313 12.248 13.0312C12.3296 13.0312 12.4096 13.0533 12.4805 13.0938L13.4805 13.666L13.5273 13.6924V13.6387L13.5312 11.25V11.2031L13.4883 11.2207ZM13.123 6.14258C12.7062 5.96992 12.2472 5.92467 11.8047 6.0127C11.3623 6.10075 10.9557 6.31775 10.6367 6.63672C10.3177 6.95569 10.1008 7.36227 10.0127 7.80469C9.92467 8.24721 9.96992 8.7062 10.1426 9.12305C10.3152 9.53975 10.6074 9.89585 10.9824 10.1465C11.3576 10.3972 11.7988 10.5312 12.25 10.5312C12.5496 10.5312 12.8463 10.4721 13.123 10.3574C13.3998 10.2428 13.6515 10.0751 13.8633 9.86328C14.0751 9.65147 14.2428 9.39978 14.3574 9.12305C14.4721 8.84627 14.5312 8.54958 14.5312 8.25C14.5312 7.79881 14.3972 7.35757 14.1465 6.98242C13.8958 6.60743 13.5397 6.31521 13.123 6.14258ZM4.5 8.53125H7.5C7.62432 8.53125 7.74315 8.58104 7.83105 8.66895C7.91896 8.75685 7.96875 8.87568 7.96875 9C7.96875 9.12432 7.91896 9.24315 7.83105 9.33105C7.74315 9.41896 7.62432 9.46875 7.5 9.46875H4.5C4.37568 9.46875 4.25685 9.41896 4.16895 9.33105C4.08104 9.24315 4.03125 9.12432 4.03125 9C4.03125 8.87568 4.08104 8.75685 4.16895 8.66895C4.25685 8.58104 4.37568 8.53125 4.5 8.53125ZM4.5 6.53125H7.5C7.62432 6.53125 7.74315 6.58104 7.83105 6.66895C7.91896 6.75685 7.96875 6.87568 7.96875 7C7.96875 7.12432 7.91896 7.24315 7.83105 7.33105C7.74315 7.41896 7.62432 7.46875 7.5 7.46875H4.5C4.37568 7.46875 4.25685 7.41896 4.16895 7.33105C4.08104 7.24315 4.03125 7.12432 4.03125 7C4.03125 6.87568 4.08104 6.75685 4.16895 6.66895C4.25685 6.58104 4.37568 6.53125 4.5 6.53125ZM10.0312 10.5781L10.0215 10.5693C9.48193 10.0489 9.14121 9.35629 9.05762 8.61133C8.97405 7.86634 9.15263 7.11533 9.56348 6.48828C9.97428 5.86131 10.5913 5.39764 11.3076 5.17676C12.024 4.95592 12.7957 4.99236 13.4883 5.2793L13.5312 5.29688V3.96875H2.46875V12.0312H10.0312V10.5781Z" fill="#011813" stroke="#011813" stroke-width="0.0625"/>
</svg>
