<svg width="24" height="24" viewBox="0 0 24 24" fill="none" xmlns="http://www.w3.org/2000/svg">
<path d="M13.9578 3.76033C14.4236 3.29441 15.0492 3.02309 15.7077 3.00141C16.3662 2.97972 17.0084 3.20929 17.5038 3.64355L17.6284 3.76033L18.24 4.37193C18.7057 4.83769 18.9769 5.46309 18.9986 6.12136C19.0203 6.77963 18.7909 7.42152 18.3568 7.91692L18.24 8.04149L8.54054 17.7414C8.4034 17.8785 8.23727 17.9831 8.05436 18.0476L7.91421 18.0882L4.06106 18.9775C3.92605 19.0089 3.78547 19.0074 3.65117 18.9731C3.51686 18.9389 3.39276 18.8728 3.28931 18.7806C3.18586 18.6883 3.10609 18.5725 3.05673 18.443C3.00736 18.3135 2.98984 18.174 3.00564 18.0363L3.02294 17.9386L3.9114 14.0848C3.95529 13.8957 4.04102 13.719 4.16228 13.5675L4.2583 13.4593L13.9578 3.76033ZM13.3462 6.8183L5.56893 14.5951L5.01872 16.981L7.40467 16.4299L15.1819 8.65308L13.3462 6.8183ZM16.4052 4.98352C16.2562 4.83458 16.058 4.7451 15.8478 4.73188C15.6375 4.71867 15.4297 4.78261 15.2632 4.91172L15.1819 4.98352L14.5694 5.59511L16.4052 7.42989L17.0168 6.8183C17.1657 6.66934 17.2552 6.47116 17.2684 6.26093C17.2817 6.0507 17.2177 5.84287 17.0886 5.67643L17.0168 5.59511L16.4052 4.98352Z" fill="#020120"/>
</svg>
