<svg width="15" height="13" viewBox="0 0 15 13" fill="none" xmlns="http://www.w3.org/2000/svg">
<path d="M0.655247 5.13702H2.62099V13H0.655247C0.293367 13 0 12.7066 0 12.3448V5.79226C0 5.43038 0.293367 5.13702 0.655247 5.13702ZM4.1234 4.28985L8.31731 0.0959629C8.43257 -0.0193278 8.61512 -0.0322951 8.74552 0.0655267L9.30418 0.484518C9.62178 0.722713 9.76488 1.12858 9.66693 1.5133L8.91123 4.48177H13.1049C13.8287 4.48177 14.4154 5.0685 14.4154 5.79226V7.17112C14.4154 7.34233 14.3819 7.51185 14.3168 7.67009L12.2892 12.5942C12.1881 12.8397 11.9488 13 11.6833 13H4.58673C4.22485 13 3.93148 12.7066 3.93148 12.3448V4.75318C3.93148 4.5794 4.00052 4.41274 4.1234 4.28985Z" fill="#11B981"/>
</svg>
