<svg width="14" height="13" viewBox="0 0 14 13" fill="none" xmlns="http://www.w3.org/2000/svg">
<path d="M13.3636 7.86298H11.4545V0H13.3636C13.7151 0 14 0.293368 14 0.655248V7.20773C14 7.56962 13.7151 7.86298 13.3636 7.86298ZM9.99543 8.71015L5.92238 12.9041C5.81044 13.0193 5.63318 13.0323 5.50651 12.9345L4.96395 12.5155C4.65551 12.2773 4.51652 11.8714 4.61164 11.4867L5.34556 8.51823H1.27273C0.569819 8.51823 0 7.93152 0 7.20773V5.82889C0 5.65767 0.0325691 5.48816 0.0958618 5.32992L2.06501 0.405762C2.16319 0.160241 2.39557 0 2.65344 0H9.54545C9.89692 0 10.1818 0.293368 10.1818 0.655248V8.24682C10.1818 8.42059 10.1147 8.58729 9.99543 8.71015Z" fill="#FF3722"/>
</svg>
