<svg width="17" height="21" viewBox="0 0 17 21" fill="none" xmlns="http://www.w3.org/2000/svg">
<ellipse cx="9.44404" cy="10.3887" rx="7.55537" ry="7.5554" fill="black"/>
<path d="M0.739548 1.7245L8.49979 0L16.26 1.7245C16.6922 1.82053 16.9996 2.20379 16.9996 2.64644V12.0782C16.9996 13.9728 16.0527 15.7421 14.4763 16.793L8.49979 20.7774L2.5233 16.793C0.946886 15.7421 0 13.9728 0 12.0782V2.64644C0 2.20379 0.307437 1.82053 0.739548 1.7245ZM8.49979 11.8053L11.2753 13.2646L10.7452 10.1738L12.9908 7.98504L9.88762 7.53412L8.49979 4.72213L7.11196 7.53412L4.0088 7.98504L6.2543 10.1738L5.7242 13.2646L8.49979 11.8053Z" fill="black"/>
<path d="M1.47818 2.36975L8.49915 0.809525L15.5201 2.36975C15.9111 2.45663 16.1892 2.80338 16.1892 3.20386V11.7371C16.1892 13.4512 15.3325 15.052 13.9063 16.0028L8.49915 19.6076L3.09201 16.0028C1.66576 15.052 0.809082 13.4512 0.809082 11.7371V3.20386C0.809082 2.80338 1.08723 2.45663 1.47818 2.36975ZM8.49915 11.4903L11.0103 12.8105L10.5307 10.0142L12.5623 8.0339L9.75476 7.62593L8.49915 5.08182L7.24353 7.62593L4.43599 8.0339L6.46757 10.0142L5.98797 12.8105L8.49915 11.4903Z" fill="#06EF91"/>
</svg>
