<svg width="44" height="44" viewBox="0 0 44 44" fill="none" xmlns="http://www.w3.org/2000/svg">
<path d="M27.068 15.2266L16.9327 25.3617C16.233 26.0614 16.233 27.1959 16.9327 27.8955C17.6324 28.5953 18.7669 28.5953 19.4665 27.8955L29.6018 17.7604C31.7007 15.6613 31.7007 12.258 29.6018 10.159C27.5027 8.05991 24.0994 8.05991 22.0003 10.159L11.8651 20.2942C8.36668 23.7926 8.36668 29.4646 11.8651 32.9632C15.3636 36.4616 21.0356 36.4616 24.5341 32.9632L34.6693 22.8279L37.2031 25.3617L27.068 35.497C22.1701 40.3947 14.2292 40.3947 9.33133 35.497C4.4335 30.5991 4.4335 22.6583 9.33133 17.7604L19.4665 7.62518C22.9649 4.12673 28.6371 4.12673 32.1356 7.62518C35.634 11.1236 35.634 16.7957 32.1356 20.2942L22.0003 30.4295C19.9013 32.5284 16.498 32.5284 14.3989 30.4295C12.2999 28.3303 12.2999 24.9271 14.3989 22.8279L24.5341 12.6928L27.068 15.2266Z" fill="#686868"/>
</svg>
