<svg width="14" height="15" viewBox="0 0 14 15" fill="none" xmlns="http://www.w3.org/2000/svg">
<path d="M7.00001 14.5C3.13401 14.5 0 11.366 0 7.49998C0 3.63401 3.13401 0.5 7.00001 0.5C10.866 0.5 14 3.63401 14 7.49998C14 11.366 10.866 14.5 7.00001 14.5ZM7.00001 13.1C10.0928 13.1 12.6 10.5928 12.6 7.49998C12.6 4.40721 10.0928 1.9 7.00001 1.9C3.9072 1.9 1.4 4.40721 1.4 7.49998C1.4 10.5928 3.9072 13.1 7.00001 13.1ZM4.55 8.89999H8.40001C8.59328 8.89999 8.75001 8.74333 8.75001 8.54998C8.75001 8.35671 8.59328 8.19998 8.40001 8.19998H5.60001C4.6335 8.19998 3.85 7.41654 3.85 6.44998C3.85 5.48351 4.6335 4.70001 5.60001 4.70001H6.30001V3.30001H7.70001V4.70001H9.45V6.09998H5.60001C5.4067 6.09998 5.25 6.25671 5.25 6.44998C5.25 6.64332 5.4067 6.79998 5.60001 6.79998H8.40001C9.3665 6.79998 10.15 7.58349 10.15 8.54998C10.15 9.51655 9.3665 10.3 8.40001 10.3H7.70001V11.7H6.30001V10.3H4.55V8.89999Z" fill="#011813"/>
</svg>
