<svg width="14" height="15" viewBox="0 0 14 15" fill="none" xmlns="http://www.w3.org/2000/svg">
<path fill-rule="evenodd" clip-rule="evenodd" d="M11.1264 0.518265C11.2119 0.541851 11.2896 0.587712 11.3516 0.651168C11.4135 0.714623 11.4576 0.793403 11.4792 0.879468L11.9072 2.59518L13.6211 3.02361C13.7071 3.04527 13.7859 3.08939 13.8493 3.15147C13.9127 3.21354 13.9585 3.29135 13.982 3.37695C14.0056 3.46254 14.006 3.55286 13.9833 3.63868C13.9605 3.72449 13.9155 3.80273 13.8527 3.86541L11.8481 5.87209C11.7869 5.93312 11.711 5.97729 11.6278 6.00032C11.5445 6.02335 11.4568 6.02446 11.373 6.00353L9.78535 5.60721L7.42696 7.96707C7.30946 8.08469 7.1501 8.15076 6.98394 8.15076C6.81778 8.15076 6.65842 8.08469 6.54093 7.96707C6.42343 7.84945 6.35743 7.68993 6.35743 7.52359C6.35743 7.35726 6.42343 7.19773 6.54093 7.08012L8.89832 4.71925L8.50142 3.12996C8.48033 3.04594 8.48134 2.95787 8.50435 2.87435C8.52736 2.79083 8.57158 2.7147 8.63272 2.65337L10.6373 0.646693C10.7 0.583974 10.7783 0.539041 10.864 0.516479C10.9498 0.493917 11.04 0.494533 11.1254 0.518265M6.58503 1.78247C6.75091 1.7713 6.90555 1.69462 7.01495 1.5693C7.12434 1.44398 7.17953 1.2803 7.16837 1.11425C7.1572 0.948202 7.0806 0.793394 6.95541 0.683883C6.83023 0.574373 6.66671 0.519129 6.50084 0.530305C5.16668 0.623278 3.88721 1.09766 2.81444 1.89709C1.74166 2.69652 0.920655 3.7874 0.448954 5.04015C-0.0227469 6.2929 -0.12532 7.65487 0.153419 8.96425C0.432158 10.2736 1.08049 11.4754 2.02141 12.4268C2.96233 13.3782 4.15628 14.0393 5.46143 14.3314C6.76659 14.6236 8.12809 14.5346 9.3842 14.075C10.6403 13.6154 11.7383 12.8046 12.5476 11.7387C13.3569 10.6729 13.8436 9.39694 13.9499 8.06239C13.9632 7.89661 13.9101 7.73233 13.8024 7.60569C13.6947 7.47906 13.5412 7.40044 13.3756 7.38714C13.21 7.37383 13.0459 7.42693 12.9194 7.53475C12.7929 7.64256 12.7143 7.79627 12.701 7.96205C12.6141 9.05758 12.2149 10.1051 11.5508 10.9802C10.8867 11.8553 9.98557 12.5211 8.95455 12.8986C7.92352 13.2761 6.80591 13.3494 5.73451 13.1097C4.6631 12.8701 3.68293 12.3276 2.91046 11.5467C2.13799 10.7658 1.60569 9.77938 1.37679 8.70456C1.1479 7.62974 1.23203 6.51173 1.61921 5.48337C2.00638 4.45501 2.68032 3.55952 3.56094 2.90331C4.44156 2.24709 5.49186 1.85772 6.58703 1.78147M6.49182 4.56073C6.52184 4.63741 6.53647 4.71926 6.53489 4.80161C6.5333 4.88396 6.51553 4.96518 6.48258 5.04065C6.44963 5.11612 6.40215 5.18435 6.34286 5.24145C6.28356 5.29855 6.21362 5.3434 6.13701 5.37343C5.77952 5.51342 5.46254 5.74042 5.21472 6.03388C4.96691 6.32733 4.79608 6.67801 4.71769 7.05417C4.6393 7.43034 4.65581 7.82013 4.76575 8.1883C4.87568 8.55647 5.07556 8.8914 5.34731 9.1628C5.61906 9.4342 5.95411 9.6335 6.32215 9.74268C6.69019 9.85187 7.07962 9.86749 7.45521 9.78813C7.83079 9.70877 8.1807 9.53694 8.47327 9.28818C8.76584 9.03942 8.99185 8.72157 9.13086 8.36339C9.19375 8.21238 9.31311 8.09196 9.46347 8.02783C9.61382 7.96369 9.78326 7.96091 9.93563 8.02009C10.088 8.07927 10.2112 8.19572 10.279 8.34458C10.3468 8.49345 10.3538 8.66294 10.2985 8.8169C10.0844 9.36995 9.73595 9.86083 9.28461 10.2451C8.83328 10.6294 8.29334 10.8949 7.71366 11.0177C7.13399 11.1405 6.53289 11.1166 5.96475 10.9482C5.39661 10.7799 4.87938 10.4724 4.45988 10.0535C4.04037 9.63465 3.73182 9.11768 3.56216 8.54939C3.3925 7.9811 3.36709 7.37943 3.48822 6.79884C3.60936 6.21824 3.87321 5.67705 4.2559 5.22424C4.6386 4.77143 5.12805 4.4213 5.67996 4.20554C5.75656 4.17549 5.83833 4.16084 5.92059 4.16243C6.00285 4.16402 6.08399 4.18181 6.15938 4.21479C6.23477 4.24778 6.30293 4.2953 6.35997 4.35466C6.41701 4.41401 6.46181 4.48404 6.49182 4.56073Z" fill="#011813"/>
</svg>
