<svg width="13" height="13" viewBox="0 0 13 13" fill="none" xmlns="http://www.w3.org/2000/svg">
<path d="M6.5 13C2.91015 13 0 10.0898 0 6.5C0 2.91015 2.91015 0 6.5 0C10.0898 0 13 2.91015 13 6.5C13 10.0898 10.0898 13 6.5 13ZM6.5 11.7C9.37189 11.7 11.7 9.37189 11.7 6.5C11.7 3.62812 9.37189 1.3 6.5 1.3C3.62812 1.3 1.3 3.62812 1.3 6.5C1.3 9.37189 3.62812 11.7 6.5 11.7ZM3.9 7.15H9.1C9.1 8.58591 7.93591 9.75 6.5 9.75C5.06406 9.75 3.9 8.58591 3.9 7.15ZM3.9 5.85C3.36152 5.85 2.925 5.41346 2.925 4.875C2.925 4.33652 3.36152 3.9 3.9 3.9C4.43848 3.9 4.875 4.33652 4.875 4.875C4.875 5.41346 4.43848 5.85 3.9 5.85ZM9.1 5.85C8.56154 5.85 8.125 5.41346 8.125 4.875C8.125 4.33652 8.56154 3.9 9.1 3.9C9.63846 3.9 10.075 4.33652 10.075 4.875C10.075 5.41346 9.63846 5.85 9.1 5.85Z" fill="#4E5255"/>
</svg>
