<svg width="16" height="17" viewBox="0 0 16 17" fill="none" xmlns="http://www.w3.org/2000/svg">
<path d="M3.31302 8.5H1.84912C1.38043 8.5 1 8.86854 1 9.32259V14.6774C1 15.1315 1.38043 15.5 1.84912 15.5H3.31224C3.78094 15.5 4.16137 15.1315 4.16137 14.6774V9.32259C4.16137 8.86854 3.78172 8.5 3.31302 8.5ZM8.73195 5H7.26805C6.79935 5 6.41971 5.36854 6.41971 5.82259V14.6774C6.41971 15.1315 6.79935 15.5 7.26805 15.5H8.73195C9.20065 15.5 9.58029 15.1315 9.58029 14.6774V5.82259C9.58029 5.36854 9.20065 5 8.73195 5ZM14.1509 1.5H12.6878C12.2191 1.5 11.8386 1.86854 11.8386 2.32259V14.6774C11.8386 15.1315 12.2191 15.5 12.6878 15.5H14.1509C14.6196 15.5 15 15.1315 15 14.6774V2.32259C15 1.86854 14.6196 1.5 14.1509 1.5Z" stroke="black" stroke-width="1.3" stroke-linecap="round" stroke-linejoin="round"/>
</svg>
