<svg width="320" height="320" viewBox="0 0 320 320" fill="none" xmlns="http://www.w3.org/2000/svg">
<path d="M66.6665 40H240C250.608 40 260.783 44.2143 268.284 51.7157C275.786 59.2172 280 69.3913 280 80V253.333C280 263.942 275.786 274.116 268.284 281.618C260.783 289.119 250.608 293.333 240 293.333H66.6665C56.0578 293.333 45.8837 289.119 38.3822 281.618C30.8808 274.116 26.6665 263.942 26.6665 253.333V80C26.6665 69.3913 30.8808 59.2172 38.3822 51.7157C45.8837 44.2143 56.0578 40 66.6665 40ZM66.6665 53.3333C59.5941 53.3333 52.8113 56.1428 47.8103 61.1438C42.8094 66.1448 39.9998 72.9276 39.9998 80V234.533L97.1998 177.2L130.533 210.533L197.2 143.867L266.666 213.333V80C266.666 72.9276 263.857 66.1448 258.856 61.1438C253.855 56.1428 247.072 53.3333 240 53.3333H66.6665ZM130.533 229.467L97.1998 196.133L39.9998 253.333C39.9998 260.406 42.8094 267.189 47.8103 272.19C52.8113 277.19 59.5941 280 66.6665 280H240C247.072 280 253.855 277.19 258.856 272.19C263.857 267.189 266.666 260.406 266.666 253.333V232.133L197.2 162.8L130.533 229.467ZM99.9998 80C108.84 80 117.319 83.5119 123.57 89.7631C129.821 96.0143 133.333 104.493 133.333 113.333C133.333 122.174 129.821 130.652 123.57 136.904C117.319 143.155 108.84 146.667 99.9998 146.667C91.1593 146.667 82.6808 143.155 76.4296 136.904C70.1784 130.652 66.6665 122.174 66.6665 113.333C66.6665 104.493 70.1784 96.0143 76.4296 89.7631C82.6808 83.5119 91.1593 80 99.9998 80ZM99.9998 93.3333C94.6955 93.3333 89.6084 95.4405 85.8577 99.1912C82.107 102.942 79.9998 108.029 79.9998 113.333C79.9998 118.638 82.107 123.725 85.8577 127.475C89.6084 131.226 94.6955 133.333 99.9998 133.333C105.304 133.333 110.391 131.226 114.142 127.475C117.893 123.725 120 118.638 120 113.333C120 108.029 117.893 102.942 114.142 99.1912C110.391 95.4405 105.304 93.3333 99.9998 93.3333Z" fill="black"/>
</svg>
